<?xml version="1.0" standalone="no"?>
<!DOCTYPE svg PUBLIC "-//W3C//DTD SVG 20010904//EN"
 "http://www.w3.org/TR/2001/REC-SVG-20010904/DTD/svg10.dtd">
<svg version="1.0" xmlns="http://www.w3.org/2000/svg"
 width="250.000000pt" height="250.000000pt" viewBox="0 0 250.000000 250.000000"
 preserveAspectRatio="xMidYMid meet">
<metadata>
Created by potrace 1.14, written by Peter Selinger 2001-2017
</metadata>
<g transform="translate(0.000000,250.000000) scale(0.100000,-0.100000)"
fill="#000000" stroke="none">
<path d="M1189 2061 c-40 -13 -71 -31 -111 -67 -35 -32 -37 -32 -75 -19 -59
21 -141 19 -188 -6 -39 -20 -95 -72 -95 -88 0 -4 -33 -7 -73 -7 -61 0 -80 -4
-117 -26 -60 -35 -76 -55 -120 -147 -3 -8 -19 -16 -35 -18 -41 -6 -100 -38
-138 -76 -71 -72 -78 -219 -14 -338 48 -91 170 -227 273 -306 16 -12 40 -31
54 -43 14 -12 43 -34 65 -48 22 -14 67 -43 100 -65 71 -47 235 -136 315 -170
44 -19 135 -45 175 -50 96 -12 363 96 558 225 32 21 60 38 63 38 9 0 134 94
134 102 0 4 6 8 13 8 24 0 193 174 239 245 53 83 88 177 88 240 0 53 -36 139
-74 177 -35 34 -90 60 -141 66 -37 4 -44 9 -65 49 -13 25 -37 58 -52 74 -35
34 -116 62 -168 57 -34 -3 -41 0 -56 26 -21 35 -51 66 -64 66 -5 0 -10 4 -10
9 0 29 -138 43 -205 21 -33 -11 -39 -10 -55 8 -46 49 -159 81 -221 63z"/>
</g>
</svg>
